<svg width="44" height="44" viewBox="0 0 44 44" fill="none" xmlns="http://www.w3.org/2000/svg">
<circle cx="22" cy="22" r="22" fill="#0D6EFD"/>
<path d="M26.3333 33.6458H17.6667C11.4375 33.6458 11.4375 30.3417 11.4375 27.4167V26.3333C11.4375 23.9175 11.4375 21.1875 16.5833 21.1875C17.8725 21.1875 18.3492 21.5017 19.0208 22C19.0533 22.0325 19.0967 22.0542 19.1292 22.0975L20.2342 23.2675C21.1658 24.2533 22.8558 24.2533 23.7875 23.2675L24.8925 22.0975C24.925 22.065 24.9575 22.0325 25.0008 22C25.6725 21.4908 26.1492 21.1875 27.4383 21.1875C32.5842 21.1875 32.5842 23.9175 32.5842 26.3333V27.4167C32.5625 31.555 30.4717 33.6458 26.3333 33.6458ZM16.5833 22.8125C13.0625 22.8125 13.0625 23.9175 13.0625 26.3333V27.4167C13.0625 30.385 13.0625 32.0208 17.6667 32.0208H26.3333C29.5617 32.0208 30.9375 30.645 30.9375 27.4167V26.3333C30.9375 23.9175 30.9375 22.8125 27.4167 22.8125C26.6367 22.8125 26.4742 22.91 26.0083 23.2567L24.9575 24.3725C24.1775 25.1958 23.1267 25.6508 22 25.6508C20.8733 25.6508 19.8225 25.1958 19.0425 24.3725L17.9917 23.2567C17.5258 22.91 17.3633 22.8125 16.5833 22.8125Z" fill="white"/>
<path d="M29.5833 22.8125C29.1391 22.8125 28.7708 22.4442 28.7708 22V15.5C28.7708 13.0842 28.7708 11.9792 25.25 11.9792H18.75C15.2291 11.9792 15.2291 13.0842 15.2291 15.5V22C15.2291 22.4442 14.8608 22.8125 14.4166 22.8125C13.9725 22.8125 13.6041 22.4442 13.6041 22V15.5C13.6041 13.0842 13.6041 10.3542 18.75 10.3542H25.25C30.3958 10.3542 30.3958 13.0842 30.3958 15.5V22C30.3958 22.4442 30.0275 22.8125 29.5833 22.8125Z" fill="white"/>
<path d="M24.0365 19.8116H20.429C19.9848 19.8116 19.6165 19.4433 19.6165 18.9991C19.6165 18.555 19.9848 18.1866 20.429 18.1866H24.0365C24.4806 18.1866 24.849 18.555 24.849 18.9991C24.849 19.4433 24.4915 19.8116 24.0365 19.8116Z" fill="white"/>
<path d="M24.9463 16.5616H19.5297C19.0855 16.5616 18.7172 16.1933 18.7172 15.7491C18.7172 15.305 19.0855 14.9366 19.5297 14.9366H24.9463C25.3905 14.9366 25.7588 15.305 25.7588 15.7491C25.7588 16.1933 25.4013 16.5616 24.9463 16.5616Z" fill="white"/>
</svg>
